<svg xmlns="http://www.w3.org/2000/svg" width="20" height="20" viewBox="0 0 20 20" fill="none">
    <path d="M6.66663 9.5C6.66663 10.1417 7.16663 10.6667 7.77496 10.6667H9.02496C9.55829 10.6667 9.99163 10.2083 9.99163 9.65C9.99163 9.04167 9.72496 8.825 9.33329 8.68333L7.33329 7.98333C6.93329 7.84167 6.66663 7.625 6.66663 7.01667C6.66663 6.45833 7.09996 6 7.63329 6H8.88329C9.49996 6.00833 9.99996 6.525 9.99996 7.16667" stroke="#292D32" stroke-width="1.5" stroke-linecap="round" stroke-linejoin="round"/>
    <path d="M8.33337 10.7083V11.3249" stroke="#292D32" stroke-width="1.5" stroke-linecap="round" stroke-linejoin="round"/>
    <path d="M8.33337 5.34155V5.99155" stroke="#292D32" stroke-width="1.5" stroke-linecap="round" stroke-linejoin="round"/>
    <path d="M8.32496 14.9834C12.0023 14.9834 14.9833 12.0024 14.9833 8.32508C14.9833 4.64779 12.0023 1.66675 8.32496 1.66675C4.64766 1.66675 1.66663 4.64779 1.66663 8.32508C1.66663 12.0024 4.64766 14.9834 8.32496 14.9834Z" stroke="#292D32" stroke-width="1.5" stroke-linecap="round" stroke-linejoin="round"/>
    <path d="M10.8167 16.5666C11.5667 17.6249 12.7917 18.3166 14.1917 18.3166C16.4667 18.3166 18.3167 16.4666 18.3167 14.1916C18.3167 12.8083 17.6333 11.5833 16.5917 10.8333" stroke="#292D32" stroke-width="1.5" stroke-linecap="round" stroke-linejoin="round"/>
</svg>
